# Blender 4.3.2
# www.blender.org
mtllib RobotHinge.mtl
o Icosphere
v 0.063779 -0.270170 0.196286
v 0.206389 -0.270170 0.000000
v -0.166972 -0.270170 0.121312
v -0.166972 -0.270170 -0.121312
v 0.063779 -0.270170 -0.196286
v 0.333946 -0.063779 0.000000
v 0.103195 -0.063779 0.317599
v -0.270167 -0.063779 0.196286
v -0.270167 -0.063779 -0.196286
v 0.103195 -0.063779 -0.317599
v 0.270167 0.063779 0.196286
v -0.103195 0.063779 0.317599
v -0.333946 0.063779 0.000000
v -0.103195 0.063779 -0.317599
v 0.270167 0.063779 -0.196286
v 0.166972 0.270170 0.121312
v -0.063779 0.270170 0.196286
v -0.206389 0.270170 0.000000
v -0.063779 0.270170 -0.196286
v 0.166972 0.270170 -0.121312
vn -0.0000 -1.0000 -0.0000
vn 0.7236 -0.4472 0.5257
vn -0.2764 -0.4472 0.8507
vn -0.8944 -0.4472 -0.0000
vn -0.2764 -0.4472 -0.8507
vn 0.7236 -0.4472 -0.5257
vn 0.2764 0.4472 0.8507
vn -0.7236 0.4472 0.5257
vn -0.7236 0.4472 -0.5257
vn 0.2764 0.4472 -0.8507
vn 0.8944 0.4472 -0.0000
vn -0.0000 1.0000 -0.0000
vt 0.250001 0.318365
vt 0.595492 0.793890
vt 0.809016 0.500000
vt 0.500000 0.095488
vt 0.206110 0.595492
vt 0.024475 0.404508
vt 0.654508 0.404508
vt 0.095492 0.404508
vt 0.250001 0.095488
vt 0.206110 0.404508
vt 0.793890 0.404508
vt 0.681635 0.095488
vt 0.595492 0.095488
vt 0.793890 0.095488
vt 0.793890 0.595492
vt 0.500000 0.404508
vt 0.904508 0.595492
vt 0.404508 0.904512
vt 0.345492 0.595492
vt 0.024475 0.595492
vt 0.500000 0.904512
vt 0.500000 0.595492
vt 0.793890 0.904512
vt 0.975525 0.595492
vt 0.750000 0.904512
vt 0.904508 0.595492
vt 0.318365 0.904512
vt 0.750000 0.681635
vt 0.190984 0.500000
vt 0.404508 0.206110
vt 0.595492 0.206110
vt 0.250001 0.681635
vt 0.206110 0.095488
vt 0.318365 0.095488
vt 0.975525 0.404508
vt 0.206110 0.904512
vt 0.681635 0.904512
vt 0.750000 0.318365
vt 0.404508 0.793890
s 0
f 3/1/1 5/2/1 2/3/1
f 2/4/2 11/5/2 7/6/2
f 7/7/3 8/8/3 3/9/3
f 8/10/4 9/11/4 4/12/4
f 9/8/5 10/7/5 5/13/5
f 5/14/6 15/15/6 6/16/6
f 11/17/7 17/18/7 12/19/7
f 12/20/8 18/21/8 13/22/8
f 13/22/9 19/23/9 14/24/9
f 14/19/10 20/25/10 15/26/10
f 15/15/11 16/27/11 11/5/11
f 20/28/12 18/29/12 17/30/12
f 2/3/1 1/31/1 3/1/1
f 3/1/1 4/32/1 5/2/1
f 7/6/2 1/33/2 2/4/2
f 2/4/2 6/16/2 11/5/2
f 3/9/3 1/13/3 7/7/3
f 7/7/3 12/19/3 8/8/3
f 4/12/4 3/34/4 8/10/4
f 8/10/4 13/22/4 9/11/4
f 5/13/5 4/9/5 9/8/5
f 9/8/5 14/19/5 10/7/5
f 6/16/6 2/4/6 5/14/6
f 5/14/6 10/35/6 15/15/6
f 12/19/7 7/7/7 11/17/7
f 11/17/7 16/25/7 17/18/7
f 13/22/8 8/10/8 12/20/8
f 12/20/8 17/36/8 18/21/8
f 14/24/9 9/11/9 13/22/9
f 13/22/9 18/21/9 19/23/9
f 15/26/10 10/7/10 14/19/10
f 14/19/10 19/18/10 20/25/10
f 11/5/11 6/16/11 15/15/11
f 15/15/11 20/37/11 16/27/11
f 17/30/12 16/38/12 20/28/12
f 20/28/12 19/39/12 18/29/12
